<?xml version="1.0" standalone="no"?>
<!DOCTYPE svg PUBLIC "-//W3C//DTD SVG 20010904//EN"
 "http://www.w3.org/TR/2001/REC-SVG-20010904/DTD/svg10.dtd">
<svg version="1.0" xmlns="http://www.w3.org/2000/svg"
 width="720.000000pt" height="720.000000pt" viewBox="0 0 720.000000 720.000000"
 preserveAspectRatio="xMidYMid meet">
<metadata>
Created by potrace 1.14, written by Peter Selinger 2001-2017
</metadata>
<g transform="translate(0.000000,720.000000) scale(0.100000,-0.100000)"
fill="#000000" stroke="none">
<path d="M5510 6385 c-650 -89 -1156 -600 -1250 -1260 -13 -95 -13 -2955 0
-3050 71 -501 372 -915 823 -1130 316 -151 657 -184 1003 -95 476 123 865 489
1018 960 75 230 71 141 71 1790 0 1391 -1 1481 -19 1580 -138 784 -860 1313
-1646 1205z"/>
<path d="M1286 3990 c-634 -80 -1144 -561 -1263 -1190 -26 -139 -26 -661 0
-800 99 -526 473 -956 980 -1125 159 -53 267 -69 462 -69 196 0 303 16 465 70
504 169 877 600 976 1129 28 146 28 644 0 790 -56 299 -194 563 -406 775 -207
207 -475 350 -761 405 -98 19 -354 28 -453 15z"/>
</g>
</svg>
